<?xml version="1.0" encoding="UTF-8"?>
<svg id="_图层_1" data-name="图层_1" xmlns="http://www.w3.org/2000/svg" version="1.1" viewBox="0 0 1235 1350.35">
  <!-- Generator: Adobe Illustrator 29.8.5, SVG Export Plug-In . SVG Version: 2.1.1 Build 2)  -->
  <defs>
    <style>
      .st0 {
        fill: none;
        stroke: #000;
        stroke-miterlimit: 10;
        stroke-width: 5px;
      }
    </style>
  </defs>
  <path class="st0" d="M487,1008c-20,0-40.17-5.67-60.5-17s-37.17-22.33-50.5-33c-34.67-6-68-14-100-24s-61.67-22.67-89-38l-6-3c-16.67-9.33-34.5-20.5-53.5-33.5s-35.17-28.83-48.5-47.5c-6-8.67-9-16.67-9-24v-10l-3-4c-2.67-3.33-6-7.33-10-12s-6-11-6-19c0-7.33,2.17-15,6.5-23s9.17-16,14.5-24c3.33-4,6.5-8.5,9.5-13.5s5.83-9.5,8.5-13.5c36-48,77.33-86,124-114,46.67-28,99.33-48.33,158-61,9.33-12,19.33-23.5,30-34.5s22.33-21.17,35-30.5c9.33-7.33,19.33-15.33,30-24s21.67-13,33-13c5.33,0,8.83,2,10.5,6,1.67,4,2.5,8.67,2.5,14,0,6.67-.5,13.5-1.5,20.5s-1.5,13.83-1.5,20.5c0,5.33.33,10.67,1,16s2,10.67,4,16c33.33,2,66.67,6,100,12s66,13.33,98,22c6.67-4,13.67-10.17,21-18.5s15.5-16,24.5-23,18.17-10.5,27.5-10.5c8,0,14.83,3.17,20.5,9.5s10.5,13.83,14.5,22.5,7.67,16,11,22c4.67,8,9.67,15.83,15,23.5s10,15.83,14,24.5c17.33,6.67,34.17,14,50.5,22s32.5,15.33,48.5,22c5.33,2,9.5,3.67,12.5,5s5.17,2,6.5,2c3.33,0,7-3,11-9s7.33-11,10-15c12-16,23.67-31,35-45,11.33-14,22.33-28.67,33-44,6.67-9.33,14.67-19.17,24-29.5s20.33-15.5,33-15.5c9.33,0,16.5,3.33,21.5,10s7.5,14.67,7.5,24c0,8-.83,17.17-2.5,27.5s-5.17,22.5-10.5,36.5c-5.33,16-9.5,33.5-12.5,52.5s-4.5,35.5-4.5,49.5c0,11.33,2.83,21.17,8.5,29.5s10.83,19.17,15.5,32.5c4,10,9.33,20.17,16,30.5s12.67,22.17,18,35.5c1.33,2.67,2,5,2,7v6c0,6.67-2.33,13.83-7,21.5s-13.67,11.5-27,11.5c-7.33,0-14.83-1.67-22.5-5s-13.83-6.33-18.5-9c-10.67-6-20.67-11.83-30-17.5s-18.67-11.83-28-18.5c-8.67-7.33-17-13.5-25-18.5s-15.33-8.17-22-9.5l-33,23c-20.67,14-39.33,27.83-56,41.5-16.67,13.67-33.67,26.5-51,38.5-6.67,12.67-11.5,24.67-14.5,36s-7.17,20.5-12.5,27.5-15.33,10.5-30,10.5c-10,0-20.5-1.33-31.5-4s-21.17-5.33-30.5-8l-4,2c-40,16-79,27.83-117,35.5s-76.33,10.83-115,9.5l-26-1c2,2,5.33,6.33,10,13s7,12.33,7,17c0,6-4.33,9-13,9ZM510,921c64,0,129-11.5,195-34.5s134.67-63.83,206-122.5c5.33-4.67,10.67-9,16-13s11-7.67,17-11c5.33-3.33,10.17-6.5,14.5-9.5s8.83-6.5,13.5-10.5c6-6,15-9,27-9l1-9c-20-14.67-36-24.17-48-28.5s-23.33-6.5-34-6.5-21.67,1-33,3-25.67,3-43,3c-20,0-35.67-3-47-9s-21.33-13.17-30-21.5-18.17-15.5-28.5-21.5-24.17-9-41.5-9c-12.67,0-23.17,2-31.5,6s-16.83,8-25.5,12-20.67,6-36,6c-22.67,0-41-3.67-55-11s-27-14.5-39-21.5-26.67-10.5-44-10.5c-14.67,0-26.5,1.83-35.5,5.5s-17.67,7.83-26,12.5-18.33,8.83-30,12.5-27.5,5.5-47.5,5.5c-18.67,0-33.83-2.67-45.5-8s-25.5-8-41.5-8c-10,0-18.17,1.17-24.5,3.5s-11.17,5.17-14.5,8.5c-12.67,10.67-25.33,22-38,34s-23.33,25-32,39l-21,34h10.5c3.67,0,7.17.67,10.5,2,6,1.33,14.33,3.67,25,7s20.17,7.33,28.5,12,12.5,11,12.5,19-4.67,12-14,12c-8.67,0-16.33-2.17-23-6.5s-15-6.5-25-6.5c-6,0-10.67,2-14,6v9c10,14,23,26.5,39,37.5s31.33,20.17,46,27.5l6,3c13.33,6.67,27.33,13,42,19,14.67,6,30,11.33,46,16,5.33-11.33,9-23.17,11-35.5s3-25.5,3-39.5c0-19.33-1.5-40.83-4.5-64.5s-8.17-45.83-15.5-66.5c-1.33-4-3.5-8.67-6.5-14s-4.5-9.67-4.5-13c0-6,2.67-9,8-9,11.33,0,19.33,4.83,24,14.5s8.33,18.17,11,25.5c3.33,7.33,6.33,15.17,9,23.5s5,17.17,7,26.5c1.33-1.33,2.67-2.33,4-3s2.67-1,4-1c32-16.67,64-25,96-25,13.33,0,25.67,1.33,37,4,2.67.67,6.33,1.33,11,2s7,4.67,7,12c0,20-3.33,35.33-10,46s-13.67,20.33-21,29c-5.33,6.67-11,13-17,19s-12.67,9-20,9c-13.33,0-26-2.17-38-6.5s-25.67-8.5-41-12.5v11c0,14.67-1.67,28.17-5,40.5s-7.67,25.17-13,38.5c30,6.67,59.67,11.83,89,15.5s58.33,5.5,87,5.5ZM206,739c-8.67,0-16.17-2.67-22.5-8s-9.5-12.67-9.5-22c0-10,2.67-18.5,8-25.5s12.33-10.5,21-10.5c7.33,0,14.33,3,21,9s10,13.67,10,23c0,8.67-2.5,16.5-7.5,23.5s-11.83,10.5-20.5,10.5Z"/>
</svg>